<svg viewBox="0 0 12 12" xmlns="http://www.w3.org/2000/svg" fill-rule="evenodd" clip-rule="evenodd" stroke-linejoin="round" stroke-miterlimit="2"><path d="M6.07.146c.423 0 .77.346.77.77v2.866c0 .424-.347.77-.77.77a.773.773 0 01-.771-.77V.916c0-.424.346-.77.77-.77zM.25 4.374a.773.773 0 01.97-.495l2.726.886a.773.773 0 01.495.971.773.773 0 01-.972.495L.744 5.345a.773.773 0 01-.495-.97zm2.223 6.842a.773.773 0 01-.17-1.077l1.683-2.318a.773.773 0 011.077-.17c.343.249.42.733.17 1.076L3.55 11.046a.773.773 0 01-1.076.17zm7.194 0a.773.773 0 01-1.077-.17l-1.684-2.32a.773.773 0 01.17-1.076.773.773 0 011.077.17l1.684 2.318a.773.773 0 01-.17 1.077zm2.223-6.842a.773.773 0 01-.495.971l-2.725.886a.773.773 0 01-.971-.495.773.773 0 01.494-.971l2.725-.886a.773.773 0 01.972.495z" fill="#3d8bd8"/></svg>