<svg viewBox="0 0 8 10" xmlns="http://www.w3.org/2000/svg" fill-rule="evenodd" clip-rule="evenodd" stroke-linejoin="round" stroke-miterlimit="2"><g fill="#42de7c" fill-rule="nonzero"><path d="M5.35.04H1.416A1.26 1.26 0 00.157 1.3v6.844c0 .694.566 1.26 1.26 1.26h4.989c.694 0 1.26-.566 1.26-1.26V2.628L5.349.04zm.183 1.2L6.59 2.424H5.533V1.241zm.873 7.5H1.417a.596.596 0 01-.595-.596V1.299c0-.328.267-.596.595-.596H4.87v2.384h2.133v5.057a.596.596 0 01-.596.595z"/><path d="M1.534 6.753H6.29v.664H1.534zm0-1.443H6.29v.664H1.534zm0-1.444H6.29v.664H1.534z"/></g></svg>