<svg viewBox="0 0 8 11" xmlns="http://www.w3.org/2000/svg" fill-rule="evenodd" clip-rule="evenodd" stroke-linejoin="round" stroke-miterlimit="2"><g fill="#666767" fill-rule="nonzero"><path d="M5.35.955H1.416c-.694 0-1.26.566-1.26 1.26V9.06c0 .695.566 1.26 1.26 1.26h4.989c.694 0 1.26-.565 1.26-1.26V3.545L5.349.955zm.183 1.202L6.59 3.339H5.533V2.157zm.873 7.498H1.417a.596.596 0 01-.595-.595V2.216c0-.329.267-.596.595-.596H4.87v2.384h2.133V9.06a.596.596 0 01-.596.595z"/><path d="M1.534 7.67H6.29v.663H1.534zm0-1.444H6.29v.664H1.534zm0-1.443H6.29v.664H1.534z"/></g></svg>