<svg viewBox="0 0 14 12" xmlns="http://www.w3.org/2000/svg" fill-rule="evenodd" clip-rule="evenodd" stroke-linejoin="round" stroke-miterlimit="2"><path d="M1.724 3.914c.171.12.676.476 1.523 1.063.847.586 1.501 1.04 1.947 1.359l.32.23c.163.12.296.208.4.283.104.074.238.156.387.245.148.089.297.156.43.2.134.045.26.067.372.067h.015c.111 0 .237-.022.371-.067.134-.044.275-.111.431-.2.149-.09.282-.171.386-.245.104-.075.238-.164.401-.283l.32-.23c.453-.32 1.612-1.122 3.477-2.414.364-.253.66-.558.906-.914a1.94 1.94 0 00.364-1.122 1.13 1.13 0 00-.357-.84 1.162 1.162 0 00-.84-.348H1.636C1.256.69.96.816.76 1.076c-.208.26-.312.58-.312.966 0 .312.133.654.408 1.018.275.364.565.646.87.854z" fill="#42de7c" fill-rule="nonzero"/><path d="M13.024 4.71a145.907 145.907 0 00-3.7 2.562c-.282.208-.513.371-.69.49a3.859 3.859 0 01-.707.357c-.29.119-.564.186-.817.186h-.015a2.06 2.06 0 01-.817-.186 4.12 4.12 0 01-.705-.357 12.69 12.69 0 01-.691-.49c-.669-.49-1.902-1.345-3.692-2.563a3.87 3.87 0 01-.743-.646v5.906c0 .327.119.609.349.84.23.23.512.348.84.348h10.942c.327 0 .609-.119.84-.349.23-.23.348-.512.348-.84V4.064c-.208.238-.46.453-.742.646z" fill="#42de7c" fill-rule="nonzero"/></svg>