<svg viewBox="0 0 24 24" xmlns="http://www.w3.org/2000/svg" fill-rule="evenodd" clip-rule="evenodd" stroke-linejoin="round" stroke-miterlimit="2"><path d="M22.241 23.758c-.367 0-.735-.147-.992-.422l-4.906-4.906a10.235 10.235 0 01-6.136 2.058C4.585 20.488.01 15.913.01 10.29.01 4.669 4.585.094 10.207.094c5.622 0 10.197 4.575 10.197 10.197 0 2.223-.735 4.373-2.058 6.136l4.906 4.906a1.42 1.42 0 010 2.003 1.447 1.447 0 01-1.01.422zM10.207 2.923c-4.06 0-7.368 3.308-7.368 7.368 0 4.06 3.308 7.367 7.368 7.367 4.06 0 7.367-3.307 7.367-7.367 0-4.06-3.307-7.368-7.367-7.368z" fill="#42de7c" fill-rule="nonzero"/></svg>