<svg viewBox="0 0 25 24" xmlns="http://www.w3.org/2000/svg" fill-rule="evenodd" clip-rule="evenodd" stroke-linejoin="round" stroke-miterlimit="2"><circle cx="1201.21" cy="14.374" r="13.824" fill="#27aae1" transform="translate(-1020.708 -.372) scale(.86019)"/><g transform="translate(3.841 5.956) scale(.03749)"><clipPath id="a"><path d="M0 0h384v321H0z"/></clipPath><g clip-path="url(#a)"><path d="M150.672 211.895l-6.352 89.343c9.086 0 13.024-3.902 17.742-8.59l42.61-40.718 88.289 64.656c16.191 9.023 27.598 4.269 31.969-14.898l57.949-271.551.016-.016c5.136-23.937-8.657-33.297-24.43-27.426L17.824 133.113c-23.25 9.024-22.894 21.985-3.953 27.856l87.09 27.086L303.246 61.48c9.524-6.304 18.18-2.816 11.059 3.489L150.672 211.895z" fill="#fff" fill-rule="nonzero"/></g></g></svg>