<svg viewBox="0 0 25 24" xmlns="http://www.w3.org/2000/svg" fill-rule="evenodd" clip-rule="evenodd" stroke-linejoin="round" stroke-miterlimit="2"><circle cx="1201.21" cy="14.374" r="13.824" fill="#7300a7" transform="translate(-1020.71 -.372) scale(.86019)"/><g transform="translate(7.023 5.956) scale(.03134)"><clipPath id="a"><path d="M0 0h353v384H0z"/></clipPath><g clip-path="url(#a)" fill="#fff" fill-rule="nonzero"><path d="M348.48 222.289c11.458-96.434-5.503-157.312-36.097-184.848l.015-.015C263.023-9.602 96.273-16.559 37.199 39.535 10.672 66.977 1.328 107.246.305 157.105c-1.024 49.872-2.243 143.293 84.816 168.637h.078l-.078 38.707s-.594 15.68 9.422 18.832c11.457 3.711 16.641-3.57 52.273-46.129 59.582 5.168 105.344-6.672 110.543-8.398 12.032-4.035 80.114-13.043 91.121-106.465zm-195.792 87.633s-37.711 47.023-49.442 59.23c-3.84 3.969-8.047 3.602-7.98-4.273 0-5.168.285-64.254.285-64.254-73.809-21.152-69.453-100.703-68.656-142.32.8-41.633 8.417-75.731 30.882-98.688 51.825-48.594 198.016-37.73 235.262-2.722 45.535 40.371 29.328 154.417 29.426 158.304-9.36 77.985-64.527 82.93-74.672 86.305-4.336 1.441-44.578 11.793-95.105 8.418z"/><path d="M173.551 68.754c-6.16 0-6.16 9.598 0 9.68 47.793.367 87.152 33.679 87.586 94.781 0 6.449 9.437 6.371 9.359-.078h-.016c-.511-65.84-43.488-104.016-96.929-104.383z"/><path d="M236.414 163.09c-.141 6.367 9.281 6.672 9.363.222.782-36.304-21.601-66.207-63.664-69.359-6.16-.449-6.801 9.231-.656 9.68 36.481 2.765 55.695 27.664 54.957 59.457zm-10.078 41.293c-7.902-4.574-15.953-1.727-19.281 2.769l-6.957 9.008c-3.539 4.574-10.145 3.969-10.145 3.969-48.226-12.754-61.121-63.219-61.121-63.219s-.594-6.832 3.824-10.496l8.703-7.199c4.352-3.453 7.106-11.774 2.672-19.949-11.84-21.395-19.793-28.77-23.84-34.434-4.253-5.328-10.656-6.527-17.312-2.93h-.145c-13.839 8.098-28.992 23.25-24.14 38.852 8.269 16.445 23.468 68.879 71.918 108.492 22.769 18.738 58.8 37.938 74.097 42.371l.145.223c15.07 5.023 29.726-10.719 37.551-24.977v-.109c3.472-6.899 2.32-13.426-2.754-17.699-8.992-8.766-22.559-18.446-33.215-24.672z"/><path d="M188.703 129.664c15.375.895 22.832 8.93 23.633 25.426.289 6.445 9.648 6 9.359-.449-1.023-21.536-12.254-33.536-32.48-34.657-6.16-.367-6.735 9.313-.512 9.68z"/></g></g></svg>