<svg viewBox="0 0 13 12" xmlns="http://www.w3.org/2000/svg" fill-rule="evenodd" clip-rule="evenodd" stroke-linejoin="round" stroke-miterlimit="2"><path d="M8.485.578a2.28 2.28 0 00-1.783 2.226c0 .024.006.051.007.075 1.607.344 2.418 1.435 2.418 2.875a2.928 2.928 0 01-2.918 2.929c-1.605 0-3.105-1.35-3.105-3.35 0-2.443 2.078-4.734 5.04-4.806.053-.002.137 0 .223.004a5.865 5.865 0 00-2.1-.385C3.089.146.513 2.656.513 5.754s2.576 5.608 5.754 5.608c3.177 0 5.753-2.51 5.753-5.608 0-2.33-1.46-4.33-3.535-5.176z" fill="#ed1b2d"/></svg>