<svg viewBox="0 0 16 20" xmlns="http://www.w3.org/2000/svg" fill-rule="evenodd" clip-rule="evenodd" stroke-linejoin="round" stroke-miterlimit="2"><path d="M10.57 12.753c.786.716 1.692 1.543 2.255 2.974L9.38 14.3a2.845 2.845 0 00-.513-.158V9.926c0 1.273.828 2.028 1.705 2.827zm-4.533 0c.876-.799 1.704-1.554 1.704-2.827v4.218a2.845 2.845 0 00-.513.157l-3.446 1.426c.563-1.431 1.47-2.258 2.255-2.974zM13.354 1.45c-.05 1.06-.237 1.917-.51 2.626H3.763c-.272-.71-.46-1.565-.509-2.626h10.101zm-2.025 6.481c1.273-1.16 2.995-2.73 3.152-6.48h1.136V.324H.99V1.45h1.137c.157 3.75 1.878 5.32 3.152 6.481.854.779 1.337 1.255 1.337 1.995 0 .74-.483 1.217-1.337 1.996-1.274 1.16-2.995 2.73-3.152 6.48H.99v1.126h14.627v-1.125h-1.136c-.157-3.75-1.88-5.32-3.152-6.481-.854-.779-1.338-1.256-1.338-1.996s.484-1.216 1.338-1.995z" fill="#0a050b" fill-rule="nonzero"/></svg>