<svg viewBox="0 0 29 17" xmlns="http://www.w3.org/2000/svg" fill-rule="evenodd" clip-rule="evenodd" stroke-linejoin="round" stroke-miterlimit="2"><g fill="#333" fill-rule="nonzero"><path d="M14.297 11.484L5.952 8.916v4.29c0 1.982 3.737 3.59 8.347 3.59 4.61 0 8.348-1.608 8.348-3.59 0-.016-.005-.032-.005-.047V8.916l-8.345 2.568z"/><path d="M.31 5.963l2.981 1.066.254-.544 1.095-.093.156.162-.94.223-.136.406S1.597 11.62 1.909 13.79c0 0 1.325.79 2.649 0l.352-5.935v-.494l1.971-.445-.139.343-1.47.478.68.243 8.345 2.568 8.345-2.568 5.641-2.018L14.297.582.31 5.962z"/></g></svg>