<svg viewBox="0 0 24 19" xmlns="http://www.w3.org/2000/svg" fill-rule="evenodd" clip-rule="evenodd" stroke-linejoin="round" stroke-miterlimit="2"><g fill="#333" fill-rule="nonzero"><path d="M8.57 15.712a2.846 2.846 0 10-5.69 0 2.846 2.846 0 005.69 0zm-3.785 0a.94.94 0 111.88 0 .94.94 0 01-1.88 0zm10.569-9.579v5.807s.157-.039.94-.039c1.748 0 2.634.859 3.06 1.52a1.22 1.22 0 01.879-.377h2.845V8.776l-1.727-2.643h-5.997zm6.505 4.473h-3.252V7.354h2.439l.813 1.295v1.957z"/><path d="M1.914 10.199s6.707 1.245 7.596 4.472h3.074s.383-2.033 1.958-2.592V5.32h7.151l1.182-1.625H13.73l-1.12 2.438H.72V7.76h1.22l-.026 2.439zm18.319 3.658a.402.402 0 00-.387.31c-.008.03-.02.063-.02.097v.813c0 .225.182.407.407.407h2.845a.407.407 0 00.406-.407v-.813a.406.406 0 00-.406-.407h-2.845zm-1.093 1.855c0-.039-.004-.076-.005-.114a2.858 2.858 0 00-.122-.729 2.846 2.846 0 10.127.843zm-3.786 0a.94.94 0 111.88 0 .94.94 0 01-1.88 0z"/><path d="M12.78 3.5l-.424-1.025h-1.219L10.07.85H8.494L6.818 2.882H5.53L4.38 4.1h-.882L2.142 5.32H11.9l.88-1.82z"/></g></svg>