<svg viewBox="0 0 20 18" xmlns="http://www.w3.org/2000/svg" fill-rule="evenodd" clip-rule="evenodd" stroke-linejoin="round" stroke-miterlimit="2"><g transform="translate(.38 .295) scale(.05109)"><clipPath id="a"><path d="M0 0h384v338H0z"/></clipPath><g clip-path="url(#a)" fill-rule="nonzero"><path d="M57 112.75a56.173 56.173 0 0049.547-29.617c5.043-9.352 16.152-15.383 28.301-15.383h24.304c12.149 0 23.258 6.031 28.289 15.371A56.193 56.193 0 00237 112.75c31.016 0 56.25-25.234 56.25-56.25S268.016.25 237 .25a56.173 56.173 0 00-49.547 29.617c-5.043 9.352-16.152 15.383-28.301 15.383h-24.304c-12.149 0-23.258-6.031-28.289-15.371A56.193 56.193 0 0057 .25C25.984.25 0 25.484 0 56.5s25.984 56.25 57 56.25zm168.75-67.5h22.5v22.5h-22.5v-22.5zM57 337.75a56.173 56.173 0 0049.547-29.617c5.043-9.352 16.152-15.383 28.301-15.383h24.304c12.149 0 23.258 6.031 28.289 15.371A56.193 56.193 0 00237 337.75c31.016 0 56.25-25.234 56.25-56.25s-25.234-56.25-56.25-56.25a56.173 56.173 0 00-49.547 29.617c-5.043 9.352-16.152 15.383-28.301 15.383h-24.304c-12.149 0-23.258-6.031-28.289-15.371A56.193 56.193 0 0057 225.25c-31.016 0-57 25.234-57 56.25s25.984 56.25 57 56.25zm168.75-67.5h22.5v22.5h-22.5v-22.5z"/><path d="M277.453 142.367c-5.043 9.352-16.152 15.383-28.301 15.383h-24.304c-12.149 0-23.258-6.031-28.289-15.371A56.193 56.193 0 00147 112.75c-31.016 0-56.25 25.234-56.25 56.25s25.234 56.25 56.25 56.25a56.173 56.173 0 0049.547-29.617c5.043-9.352 16.152-15.383 28.301-15.383h24.304c12.149 0 23.258 6.031 28.289 15.371A56.193 56.193 0 00327 225.25c31.016 0 57-25.234 57-56.25s-25.984-56.25-57-56.25a56.173 56.173 0 00-49.547 29.617zM158.25 180.25h-22.5v-22.5h22.5v22.5z"/></g></g></svg>