<svg viewBox="0 0 21 21" xmlns="http://www.w3.org/2000/svg" fill-rule="evenodd" clip-rule="evenodd" stroke-linejoin="round" stroke-miterlimit="2"><g fill-rule="nonzero"><path d="M12.251 7.396l-.138 1.23a.25.25 0 00.072.204.24.24 0 00.207.072l1.232-.14c.025-.003.046-.015.07-.02L12.27 7.32a.668.668 0 00-.019.077zm.456-.659l3.936-3.936 1.58 1.58-3.936 3.936-1.58-1.58zm4.445-4.452l.536-.535 1.58 1.58-.536.535-1.58-1.58zm3.158.003a.37.37 0 00.113-.265c0-.102-.04-.2-.113-.271L19.267.708a.371.371 0 00-.534-.001l-.532.53 1.58 1.58.529-.529zM2.358 15.77h.723a.36.36 0 00.36-.362V.956a.36.36 0 00-.36-.361h-.723A2.17 2.17 0 00.19 2.763V16.75a2.885 2.885 0 012.168-.98z"/><path d="M2.463 20.828h17.599a.36.36 0 00.361-.361V6.014a.36.36 0 00-.361-.36h-2.096l-3.43 3.432c-.225.22-.518.36-.831.395-1.22.137-1.23.146-1.336.146H7.055v3.975h8.671v-1.807a.361.361 0 01.723 0v5.42a.723.723 0 01-.723.722H8.5a.361.361 0 110-.722h2.53v-2.89H7.054v5.058a.361.361 0 11-.723 0V9.627H5.248a.361.361 0 010-.722h6.182a.964.964 0 01-.034-.357l.137-1.231c.036-.32.18-.618.41-.843l.82-.82H4.165v9.754c0 .599-.485 1.084-1.083 1.084h-.723A2.17 2.17 0 00.19 18.66v.08a2.24 2.24 0 002.273 2.088z"/><path d="M11.752 14.324h3.974v2.89h-3.974z"/></g></svg>