<svg viewBox="0 0 18 23" xmlns="http://www.w3.org/2000/svg" fill-rule="evenodd" clip-rule="evenodd" stroke-linejoin="round" stroke-miterlimit="2"><g fill-rule="nonzero"><path d="M16.191 15.997c-.483-.532-1.065-.792-1.808-.792h-1.565l-1.028-.991c-.756.619-1.672.978-2.663.978a4.118 4.118 0 01-2.527-.88l-.916.88h-1.63c-.83 0-1.474.285-1.981.867C.599 17.77.847 21.422.958 22.55h16.497c.086-1.14.235-4.88-1.264-6.552z"/><path d="M4.834 8.244a1.426 1.426 0 00-.495 1.103c0 .68.446 1.238 1.015 1.337.124 1.028.545 1.932 1.177 2.6a3.74 3.74 0 001.016.768c.47.249.99.385 1.548.385.557 0 1.077-.136 1.548-.384a3.79 3.79 0 001.015-.768 4.51 4.51 0 001.164-2.589h.037c.657 0 1.177-.606 1.177-1.35 0-.458-.198-.854-.495-1.102H4.834zm8.786-2.601c-.384-1.275-1.4-2.576-2.688-3.244v3.356c-.012.136-.037.26-.1.384a.973.973 0 01-.854.532h-1.56a.952.952 0 01-.818-.458.958.958 0 01-.136-.371c-.012-.05-.012-.087-.012-.137V2.386c-1.288.681-2.304 1.982-2.688 3.257l-.086.273h-.706v1.548h10.431V5.916h-.697l-.086-.273z"/><path d="M8.413 6.287h1.549a.57.57 0 00.507-.31.529.529 0 00.075-.272V1.631a.966.966 0 00-.05-.273.783.783 0 00-.718-.495H8.413a.566.566 0 00-.57.508c0 .024-.012.05-.012.074v4.26c0 .124.037.236.1.335a.604.604 0 00.482.247z"/></g></svg>