<svg viewBox="0 0 188 98" xmlns="http://www.w3.org/2000/svg" fill-rule="evenodd" clip-rule="evenodd" stroke-linejoin="round" stroke-miterlimit="2"><path d="M6.07 92.67H2.437c-.084 6.469 11.886 6.3 11.886.127 0-3.675-2.856-4.053-5.775-4.368-1.323-.147-2.415-.378-2.331-1.491.126-1.743 4.074-1.911 4.074.042h3.57c.084-6.342-11.34-6.342-11.214 0 .042 3.192 2.142 4.284 5.334 4.515 1.47.084 2.688.252 2.688 1.28 0 1.723-4.6 1.765-4.6-.104zm13.166-6.845v11.34h3.717v-11.34h3.591v-3.36h-10.92v3.36h3.612zm19.174 6.132c3.717-2.52 2.667-9.471-3.108-9.492h-6.447v14.7h3.759v-4.326h1.953l2.52 4.326h4.2v-.546l-2.877-4.662zm-3.108-2.5h-2.688v-3.632c.882 0 1.806-.021 2.688 0 2.142.02 2.037 3.633 0 3.633zm22.428.379c0-10.164-15.079-10.164-15.079 0 0 10.185 15.078 10.185 15.078 0zm-11.215 0c0-5.292 7.371-5.292 7.371 0 0 5.334-7.37 5.334-7.37 0zm20.518 1.154l4.956-7.958v-.567h-4.074l-2.667 4.893H65.1l-2.667-4.893H58.38v.567l4.935 7.959v6.174h3.717V90.99z" fill="#42de7c" fill-rule="nonzero"/><path d="M75.096 97.29c1.134 0 2.058-.755 2.058-1.91 0-1.176-.924-1.953-2.058-1.953-1.176 0-2.1.777-2.1 1.953 0 1.155.924 1.91 2.1 1.91zm8.736-.125v-5.607c.483 0 .945 0 1.45-.084l3.233 5.69h4.18v-.587l-3.99-6.468c2.918-1.87 2.834-4.641 2.834-7.644h-3.864c0 2.75.19 5.565-3.57 5.565h-.273v-5.565H80.01v14.7h3.822zm23.268-14.7h-3.843v5.334h-4.536v-5.334h-3.843v14.7h3.843v-5.901h4.536v5.9h3.843v-14.7zm13.104 14.7h3.675v-.546l-6.636-14.343h-1.617l-6.615 14.343v.546h3.675l.861-1.848h5.796l.861 1.848zm-2.1-5.082h-3.318l1.638-3.864 1.68 3.864zm17.241-.126c3.717-2.52 2.667-9.471-3.108-9.492h-6.447v14.7h3.76v-4.326h1.952l2.52 4.326h4.2v-.546l-2.877-4.662zm-3.108-2.5h-2.688v-3.632c.882 0 1.806-.021 2.688 0 2.142.02 2.037 3.633 0 3.633zm12.096 7.708v-5.607c.483 0 .945 0 1.449-.084l3.234 5.69h4.179v-.587l-3.99-6.468c2.919-1.87 2.835-4.641 2.835-7.644h-3.864c0 2.75.189 5.565-3.57 5.565h-.273v-5.565h-3.822v14.7h3.822zm25.2-7.329c0-10.164-15.078-10.164-15.078 0 0 10.185 15.078 10.185 15.078 0zm-11.214 0c0-5.292 7.371-5.292 7.371 0 0 5.334-7.37 5.334-7.37 0zm16.086-7.371h-3.612v.567l6.3 14.3h1.596l6.237-14.3v-.567h-3.612l-3.36 8.337h-.105l-3.444-8.337z" fill="#fff" fill-rule="nonzero"/><path fill="#42de7c" d="M.095 72.283h187.8v3H.096z"/><path fill="#e8e8e8" d="M31.269 24.308h27.783v46.17H31.269zm107.501-12.88h15.301v59.056h-15.3zm-47.509 9.26L66.968 9.144v61.338h24.293V20.688zm13.534 12.08l24.293-11.544v49.259h-24.293V32.768z"/><g fill="#42de7c"><path d="M125.244 19.851V9.137h20.91v65.897h2.998V6.137h-26.91v13.714h3.002zM63.84 35.708v-8.143H36.93v47.468h2.997V30.565h20.911v5.143h3.002z"/><path d="M101.58 73.784V30.498l30.718-12.978v57.765h3.002v-62.29L98.582 28.51v45.275h2.998zm-4.024 0V15.68L60.838.166v75.119h3.002V4.69l30.718 12.979v56.115h2.998z"/></g></svg>