<svg viewBox="0 0 88 46" xmlns="http://www.w3.org/2000/svg" fill-rule="evenodd" clip-rule="evenodd" stroke-linejoin="round" stroke-miterlimit="2"><path d="M2.913 43.322H1.215c-.039 3.022 5.555 2.944 5.555.059 0-1.718-1.335-1.894-2.699-2.042-.618-.068-1.128-.176-1.09-.696.06-.815 1.905-.893 1.905.02h1.668c.039-2.964-5.3-2.964-5.24 0 .02 1.49 1 2.001 2.492 2.11.687.038 1.256.117 1.256.598 0 .804-2.149.824-2.149-.05zm6.153-3.199v5.299h1.737v-5.3h1.678v-1.57H7.378v1.57h1.688zm8.959 2.865c1.737-1.178 1.246-4.426-1.452-4.435H13.56v6.869h1.757V43.4h.912l1.178 2.022h1.962v-.256l-1.344-2.178zm-1.452-1.168h-1.256v-1.697c.412 0 .844-.01 1.256 0 1 .01.952 1.697 0 1.697zm10.48.177c0-4.75-7.046-4.75-7.046 0 0 4.76 7.046 4.76 7.046 0zm-5.24 0c0-2.473 3.444-2.473 3.444 0a1.728 1.728 0 01-3.444 0zm9.587.54l2.316-3.72v-.264h-1.904l-1.246 2.286h-.069l-1.246-2.286h-1.894v.265l2.306 3.719v2.885H31.4v-2.885z" fill="#42de7c" fill-rule="nonzero"/><path d="M35.168 45.48c.53 0 .962-.353.962-.892 0-.55-.432-.913-.962-.913-.55 0-.981.363-.981.913 0 .54.432.892.981.892zm4.082-.058v-2.62c.226 0 .442 0 .677-.04l1.512 2.66h1.952v-.275l-1.864-3.023c1.364-.873 1.325-2.168 1.325-3.571h-1.806c0 1.285.088 2.6-1.668 2.6h-.128v-2.6h-1.786v6.869h1.786zm10.873-6.869h-1.796v2.492h-2.12v-2.492h-1.795v6.869h1.796v-2.758h2.12v2.758h1.795v-6.87zm6.124 6.869h1.717v-.256l-3.101-6.702h-.756l-3.09 6.702v.256h1.717l.402-.864h2.708l.403.864zm-.982-2.375h-1.55l.765-1.806.785 1.806zm8.057-.059c1.737-1.178 1.246-4.426-1.453-4.435h-3.012v6.869h1.756V43.4h.913l1.177 2.022h1.963v-.256l-1.344-2.178zm-1.453-1.168h-1.256v-1.697c.412 0 .844-.01 1.256 0 1.001.01.952 1.697 0 1.697zm5.652 3.602v-2.62c.226 0 .442 0 .678-.04l1.51 2.66h1.954v-.275l-1.865-3.023c1.364-.873 1.325-2.168 1.325-3.571h-1.806c0 1.285.089 2.6-1.668 2.6h-.128v-2.6h-1.786v6.869h1.786zm11.776-3.425c0-4.75-7.046-4.75-7.046 0 0 4.76 7.046 4.76 7.046 0zm-5.24 0c0-2.473 3.444-2.473 3.444 0a1.728 1.728 0 01-3.444 0zm7.517-3.444h-1.688v.265L82.83 45.5h.745l2.915-6.682v-.265h-1.688l-1.57 3.895h-.05l-1.608-3.895z" fill="#030404" fill-rule="nonzero"/><path fill="#42de7c" d="M.12 33.794h87.757v1.402H.12z"/><path fill="#030404" d="M14.684 11.376h12.983V32.95H14.684zm50.238-6.021h7.15V32.95h-7.15zM42.72 9.682L31.367 4.288V32.95h11.351V9.682zm6.322 5.645l11.352-5.394V32.95H49.042V15.327z"/><g fill="#42de7c"><path d="M58.598 9.293V4.286h9.771v30.792h1.401V2.884H57.195v6.409h1.403zm-28.693 7.409v-3.805H17.33v22.18h1.401V14.3h9.771v2.403h1.403z"/><path d="M47.54 34.495V14.268l14.355-6.065v26.993h1.402V6.089l-17.157 7.25v21.156h1.4zm-1.88 0V7.343L28.502.093v35.103h1.403V2.208L44.26 8.273v26.222h1.401z"/></g></svg>